<svg width="20" height="20" viewBox="0 0 20 20" fill="none" xmlns="http://www.w3.org/2000/svg">
<path d="M11.2505 4.26876V13.7497C11.2505 14.4411 10.6919 14.9998 10.0005 14.9998C9.30905 14.9998 8.75043 14.4411 8.75043 13.7497V4.26876L5.8831 7.13609C5.39479 7.6244 4.60179 7.6244 4.11348 7.13609C3.62518 6.64779 3.62518 5.85478 4.11348 5.36647L9.11373 0.366229C9.60203 -0.122076 10.395 -0.122076 10.8833 0.366229L15.8836 5.36647C16.3719 5.85478 16.3719 6.64779 15.8836 7.13609C15.3953 7.6244 14.6023 7.6244 14.114 7.13609L11.2505 4.26876ZM2.50012 13.7497H7.50037C7.50037 15.1287 8.62151 16.2498 10.0005 16.2498C11.3795 16.2498 12.5006 15.1287 12.5006 13.7497H17.5009C18.8798 13.7497 20.001 14.8708 20.001 16.2498V17.4999C20.001 18.8789 18.8798 20 17.5009 20H2.50012C1.12115 20 0 18.8789 0 17.4999V16.2498C0 14.8708 1.12115 13.7497 2.50012 13.7497ZM16.8758 17.8124C17.1245 17.8124 17.3629 17.7136 17.5388 17.5378C17.7146 17.362 17.8134 17.1235 17.8134 16.8748C17.8134 16.6262 17.7146 16.3877 17.5388 16.2119C17.3629 16.0361 17.1245 15.9373 16.8758 15.9373C16.6272 15.9373 16.3887 16.0361 16.2129 16.2119C16.0371 16.3877 15.9383 16.6262 15.9383 16.8748C15.9383 17.1235 16.0371 17.362 16.2129 17.5378C16.3887 17.7136 16.6272 17.8124 16.8758 17.8124Z" fill="white"/>
</svg>
